<svg xmlns="http://www.w3.org/2000/svg" viewBox="0 0 27 27"><path d="M1 1h7v7h-7zM9 1h2v4h-1v-1h-1v-1h1v-1h-1zM16 1h2v3h-2v1h1v2h-1v-1h-2v-1h1v-2h-2v-1h3v1h1v-1h-1zM19 1h7v7h-7zM2 2v5h5v-5zM20 2v5h5v-5zM3 3h3v3h-3zM12 3h1v1h1v1h-1v1h1v2h-1v-1h-1v3h-1v-3h-1v1h-1v-2h3zM21 3h3v3h-3zM15 7h1v1h1v-1h1v3h-1v-1h-1v2h-2v-2h1zM1 9h1v3h-1zM3 9h1v1h1v1h1v-1h1v1h1v1h-1v1h1v1h-1v1h-1v-1h-2v2h2v1h-1v1h-1v-1h-1v-1h-2v-1h2v-3h1v-1h-1zM7 9h2v2h-1v-1h-1zM20 9h1v1h-1zM23 9h1v1h-1zM25 9h1v4h-1zM10 10h1v1h1v1h-1v1h-1v1h1v-1h3v-1h1v2h-1v1h2v4h-2v-2h1v-1h-1v1h-2v-1h1v-2h-1v2h-1v-1h-1v2h1v1h1v1h-2v1h-1v-4h-2v-1h1v-1h1v-1h-1v-1h1v-1h1zM18 10h1v1h2v-1h2v1h-1v1h-3v1h-1v-1h-2v-1h2zM13 11h1v1h-1zM23 11h1v1h-1zM22 12h1v1h2v1h-2v2h-1v2h2v-3h1v2h1v2h-1v1h-1v1h1v1h-2v-1h-1v1h1v1h-2v1h-2v-1h-1v-1h-2v-2h1v-3h4v-2h1v-1h-1v-1h1zM16 13h1v2h-1zM18 14h3v1h-2v1h-2v-1h1zM25 14h1v1h-1zM1 17h2v1h-2zM6 17h2v1h-2zM18 18v3h3v-3zM1 19h7v7h-7zM12 19h1v1h-1zM19 19h1v1h-1zM22 19v1h1v-1zM2 20v5h5v-5zM11 20h1v1h2v-1h1v2h-1v1h2v3h-2v-1h1v-1h-1v1h-3v-1h-2v-1h3v1h1v-2h-2zM25 20h1v1h-1zM3 21h3v3h-3zM17 23h1v3h-1zM23 23h3v3h-7v-1h3v-1h1zM24 24v1h1v-1zM9 25h2v1h-2z"/></svg>
